<svg xmlns="http://www.w3.org/2000/svg" width="40" height="40" viewBox="0 0 40 40">
  <g id="actualizar" transform="translate(0 -0.002)">
    <path id="Trazado_16" data-name="Trazado 16" d="M0,20A20,20,0,1,1,20,40,20,20,0,0,1,0,20Z" fill="#007d3c"/>
    <g id="Grupo_3" data-name="Grupo 3" transform="translate(4.902 5.756)">
      <path id="Trazado_17" data-name="Trazado 17" d="M130.227,79.5l-2.5.006a13.26,13.26,0,0,0-23.312-2.144c-1.314,1.881,1.774,3.641,3.076,1.776a9.851,9.851,0,0,1,16.278.378l-2.312.005a.543.543,0,0,0-.463.232.512.512,0,0,0-.052.66l4.4,6.832a.6.6,0,0,0,1.024,0l4.369-6.854A.6.6,0,0,0,130.227,79.5Z" transform="translate(-100.604 -71.375)" fill="#fff"/>
      <path id="Trazado_18" data-name="Trazado 18" d="M84.151,233.022a9.855,9.855,0,0,1-16.2-.246l2.216-.005a.544.544,0,0,0,.463-.231.512.512,0,0,0,.052-.661l-4.4-6.832a.6.6,0,0,0-1.023,0L60.891,231.9a.6.6,0,0,0,.509.888l2.58-.006A13.253,13.253,0,0,0,87.227,234.8C88.541,232.917,85.453,231.157,84.151,233.022Z" transform="translate(-60.807 -212.395)" fill="#fff"/>
    </g>
  </g>
</svg>
