<svg xmlns="http://www.w3.org/2000/svg" width="35" height="34.999" viewBox="0 0 35 34.999">
  <g id="Git_icon" transform="translate(75 66)">
    <path id="Trazado_28" data-name="Trazado 28" d="M36.895,18.5,21.613,3.218a2.254,2.254,0,0,0-3.188,0L15.253,6.392l4.025,4.025a2.677,2.677,0,0,1,3.39,3.413l3.88,3.879a2.68,2.68,0,1,1-1.606,1.513L21.322,15.6v9.521a2.678,2.678,0,1,1-2.205-.078v-9.61a2.683,2.683,0,0,1-1.456-3.518L13.693,7.95,3.215,18.428a2.255,2.255,0,0,0,0,3.188L18.5,36.9a2.254,2.254,0,0,0,3.188,0l15.21-15.21A2.255,2.255,0,0,0,36.895,18.5Z" transform="translate(-77.555 -68.558)" fill="#dbdbdb"/>
  </g>
</svg>
