<svg xmlns="http://www.w3.org/2000/svg" width="36.016" height="35" viewBox="0 0 36.016 35">
  <g id="Guardado" transform="translate(1148 374)">
    <path id="Rectángulo_47" data-name="Rectángulo 47" d="M7.9,0H34.323a1.694,1.694,0,0,1,1.694,1.694V33.306A1.694,1.694,0,0,1,34.323,35H1.694A1.694,1.694,0,0,1,0,33.306V7.9A7.9,7.9,0,0,1,7.9,0Z" transform="translate(-1148 -374)" fill="#007d3c"/>
    <path id="Rectángulo_48" data-name="Rectángulo 48" d="M0,0H21.113V10.839a1.694,1.694,0,0,1-1.694,1.694H1.694A1.694,1.694,0,0,1,0,10.839Z" transform="translate(-1140.097 -371.065)" fill="#e5e5e5"/>
    <rect id="Rectángulo_49" data-name="Rectángulo 49" width="5" height="8" rx="2.5" transform="translate(-1137 -369)"/>
    <path id="Rectángulo_50" data-name="Rectángulo 50" d="M2.258,0H26.645A2.258,2.258,0,0,1,28.9,2.258V15.242H0V2.258A2.258,2.258,0,0,1,2.258,0Z" transform="translate(-1144.387 -356.161)" fill="#fff"/>
    <rect id="Rectángulo_51" data-name="Rectángulo 51" width="24" height="2" rx="1" transform="translate(-1142 -353)"/>
    <rect id="Rectángulo_52" data-name="Rectángulo 52" width="24" height="2" rx="1" transform="translate(-1142 -350)"/>
    <rect id="Rectángulo_53" data-name="Rectángulo 53" width="24" height="2" rx="1" transform="translate(-1142 -348)"/>
    <rect id="Rectángulo_54" data-name="Rectángulo 54" width="24" height="2" rx="1" transform="translate(-1142 -345)"/>
  </g>
</svg>
