<svg xmlns="http://www.w3.org/2000/svg" width="188.391" height="136.616" viewBox="0 0 188.391 136.616">
  <g id="Icon" transform="translate(21.846 256.847)">
    <g id="womanShoe" transform="translate(-21.846 -256.847)">
      <path id="Trazado_5" data-name="Trazado 5" d="M104.28-1179.687a16.815,16.815,0,0,1,3.91,1.958,40.331,40.331,0,0,1,4.374,4.173,35.171,35.171,0,0,1,4.46,6.943c.628,1.156,1.738,3.209,2.481,4.565,3.678,6.7,4.48,9.512,4.142,14.573-.338,5.042-.377,5.348-.859,6.293a6.337,6.337,0,0,1-2.24,2.1l-.772.478-.492.984a85.123,85.123,0,0,0-4.866,12.071c-2.848,8.71-4.209,14.764-4.769,21.153a86.6,86.6,0,0,0-.348,9.932,131.068,131.068,0,0,0,.782,15.948c.338,3.428.28,3.151.724,3.151.212,0,.377.019.377.048s.106.716.241,1.538a11.71,11.71,0,0,1,.2,1.537c-.048.048-6.131-.124-6.189-.182a13.767,13.767,0,0,1,.116-1.633c.135-1.375.183-1.595.328-1.595s.164-.277.232-3.171c.1-4.546.01-11.336-.183-13.122a92.1,92.1,0,0,0-3.63-17.037c-.367-1.079-.821-2.473-1.023-3.1a13.9,13.9,0,0,0-.637-1.7c-.27-.544-.965-1.308-1.178-1.308-.116,0-.406.659-1.381,3.151a195.79,195.79,0,0,0-7.463,23.207c-1.651,6.523-2.645,9.521-4.248,12.854-1.11,2.321-1.931,3.371-3.321,4.288a12.484,12.484,0,0,1-3.485,1.547,44.445,44.445,0,0,1-11.055,2.177c-1.921.181-4.47.258-11.634.334-4.46.057-9.346.134-10.862.191-4.866.162-17.745.22-24.33.105-11.335-.2-20.42-.5-20.709-.669-.628-.391-.859-1.308-.792-3.066.135-3.3,1.352-5.271,5.281-8.528,2.819-2.33,4.683-3.39,9.413-5.386a43.787,43.787,0,0,1,7.241-2.368,38.627,38.627,0,0,0,6.082-1.91,18.594,18.594,0,0,0,1.989-1.241c2.52-1.8,2.838-1.9,5.494-1.881a11.738,11.738,0,0,1,2.655.2l.772.181,2.51-.993a33.521,33.521,0,0,0,5.841-2.77,40.424,40.424,0,0,0,9.51-9.779c2.51-3.591,3.553-5.692,5.7-11.46,1.69-4.536,2.4-6.217,6.266-14.6a13.894,13.894,0,0,0,.6-1.413c-.039-.038-4.113,8.824-4.818,10.476-.483,1.127-1.236,3.065-2.385,6.141a47.322,47.322,0,0,1-2.7,6.208,29.138,29.138,0,0,1-2.1,3.314c-.048,0-.029-.038.666-1.089,1.6-2.426,2.694-4.785,4.615-9.989,1.168-3.161,1.719-4.5,3.186-7.783,6.218-13.848,8.274-17.591,12.773-23.254.7-.869,2.114-2.607,3.157-3.868a94.088,94.088,0,0,0,6.807-9.025c2.317-3.457,2.867-4.365,5.7-9.216.772-1.337,2.713-4.326,3.283-5.052.135-.172.154-.172.319-.029s.193.134.541-.306a10.336,10.336,0,0,1,2.8-2.3.985.985,0,0,0,.348-.2c.135-.105.5-.363.811-.573C103.161-1179.878,103.363-1179.906,104.28-1179.687ZM72.468-1138.87c-.058.105-.077.191-.058.191s.1-.086.154-.191.077-.191.058-.191S72.526-1138.975,72.468-1138.87Zm-.56,1.1c.029.029.087-.019.116-.115.058-.134.048-.143-.048-.057C71.908-1137.877,71.879-1137.8,71.908-1137.772Zm-.657,1.2a8.755,8.755,0,0,0-.5,1.1,8.346,8.346,0,0,0,.589-1.06,8.246,8.246,0,0,0,.5-1.1A8.883,8.883,0,0,0,71.252-1136.568Zm-.7,1.471c.029.029.087-.019.116-.115.058-.134.048-.143-.048-.057C70.557-1135.2,70.528-1135.126,70.557-1135.1Zm-.193.382c.029.029.087-.019.116-.115.058-.134.048-.143-.048-.057C70.363-1134.821,70.334-1134.744,70.363-1134.716Zm-.782,1.623c0,.048.145-.182.328-.525a4.255,4.255,0,0,0,.328-.716c0-.057-.145.182-.328.525A3.928,3.928,0,0,0,69.581-1133.092Z" transform="translate(-0.172 1179.822)" fill="#540029"/>
      <path id="Trazado_6" data-name="Trazado 6" d="M689-411a15.818,15.818,0,0,1-2.6,3c-.3,0,.4-1.4,1.6-3a12.8,12.8,0,0,1,2.6-3C690.9-414,690.2-412.7,689-411Z" transform="translate(-631.261 483.594)" fill="#540029"/>
      <path id="Trazado_7" data-name="Trazado 7" d="M696-401a15.818,15.818,0,0,1-2.6,3c-.3,0,.4-1.4,1.6-3a12.8,12.8,0,0,1,2.6-3C697.9-404,697.2-402.7,696-401Z" transform="translate(-638.915 474.503)" fill="#540029"/>
      <path id="Trazado_8" data-name="Trazado 8" d="M701.005-396.6a5.734,5.734,0,0,1-1.8,1.7c-1.5,1.3-1.6,1.2-.3-.4S701.005-397.4,701.005-396.6Z" transform="translate(-643.348 469.949)" fill="#540029"/>
      <path id="Trazado_9" data-name="Trazado 9" d="M704.005-392.6a5.734,5.734,0,0,1-1.8,1.7c-1.5,1.3-1.6,1.2-.3-.4S704.005-393.4,704.005-392.6Z" transform="translate(-646.632 466.322)" fill="#540029"/>
      <path id="Trazado_10" data-name="Trazado 10" d="M707.005-388.6a5.734,5.734,0,0,1-1.8,1.7c-1.5,1.3-1.6,1.2-.3-.4S707.005-389.4,707.005-388.6Z" transform="translate(-649.915 462.695)" fill="#540029"/>
      <path id="Trazado_11" data-name="Trazado 11" d="M710.005-384.6a5.734,5.734,0,0,1-1.8,1.7c-1.5,1.3-1.6,1.2-.3-.4S710.005-385.4,710.005-384.6Z" transform="translate(-653.198 459.068)" fill="#540029"/>
      <path id="Trazado_12" data-name="Trazado 12" d="M713.5-378a7.646,7.646,0,0,1-2.3,2c-.3,0,.3-.9,1.3-2a7.646,7.646,0,0,1,2.3-2C715.1-380,714.5-379.1,713.5-378Z" transform="translate(-658.081 453.921)" fill="#540029"/>
      <path id="Trazado_13" data-name="Trazado 13" d="M718.5-372a7.646,7.646,0,0,1-2.3,2c-.3,0,.3-.9,1.3-2a7.646,7.646,0,0,1,2.3-2C720.1-374,719.5-373.1,718.5-372Z" transform="translate(-663.551 448.476)" fill="#540029"/>
      <path id="Trazado_14" data-name="Trazado 14" d="M723.5-366a7.646,7.646,0,0,1-2.3,2c-.3,0,.3-.9,1.3-2a7.646,7.646,0,0,1,2.3-2C725.1-368,724.5-367.1,723.5-366Z" transform="translate(-669.02 443.03)" fill="#540029"/>
      <path id="Trazado_15" data-name="Trazado 15" d="M732-356.5a13.3,13.3,0,0,1-2.8,2.5c-.3,0,.5-1.1,1.8-2.5a13.294,13.294,0,0,1,2.8-2.5C734.1-359,733.3-357.9,732-356.5Z" transform="translate(-678.255 434.228)" fill="#540029"/>
    </g>
    <g id="manShoe" transform="translate(39.272 -241.414)">
      <g id="Grupo_2" data-name="Grupo 2">
        <g id="Grupo_1" data-name="Grupo 1">
          <path id="Trazado_1" data-name="Trazado 1" d="M12.53,105.85c3.97.8,7.98,1.51,11.96,2.26,17.87,3.36,38.8,5.91,55.82-1.12,6.63-2.74,11.11-6.53,18.24-7.88a108.082,108.082,0,0,0,16.45-4c3.56-1.29,8.93-2.99,9.87-7.21a49.757,49.757,0,0,0-1-26.08,34.437,34.437,0,0,0-4.76-9.67c-1.82-2.51-4.48-4.89-7.6-5.25a55.906,55.906,0,0,0-18.05.96c-.99.22-2.14.45-2.8-.49a13.773,13.773,0,0,0-9.44-6.7,17.8,17.8,0,0,0-15.7,5.26c-1.8,1.88-3.57,3.77-5.35,5.68a12.877,12.877,0,0,0-1.36,1.5c-.23.36-.32.73-.66.97-.69.47-1.89.02-2.66.11-4.52.57-9.46,5.83-12.16,9.31a7.91,7.91,0,0,0-2.06,6.07,5.435,5.435,0,0,1-.82,4c-8.23,10.4-24.44,8.44-33.71,17.74a11.357,11.357,0,0,0-3.2,9.09c.22,3.87,3.82,4.36,7.07,5.06Q11.555,105.64,12.53,105.85Z" fill="#7e013f"/>
          <path id="Trazado_2" data-name="Trazado 2" d="M127.2,95.6a27.224,27.224,0,0,0-.52-4.34l.02-.01a3.837,3.837,0,0,0-.21-1.05c-.01-.05-.02-.11-.03-.17a.913.913,0,0,0-.08-.13,5.1,5.1,0,0,0-1.52-2c-5.76,6.19-22.78,8.58-22.78,8.58-5.22.56-13.94,5.49-13.94,5.49-20.54,9.43-44.74,7.6-44.74,7.6-26.73-.7-39.9-9.24-39.9-9.24a3.6,3.6,0,0,0-1.88,1.56H1.61a1.125,1.125,0,0,0-.22.08,24.006,24.006,0,0,0-.61,5.27c-.18,2.21.01,4.18,2.1,5.28,7.01,3.67,14.86,5.53,22.61,6.82,11.7,1.95,24.07,2.1,35.9,1.6,11.46-.49,23.51-3.71,32.57-11.14.78-.64,1.58-1.56,2.42-2.39,1.06-1.05,3.17-2.2,4.71-2.02.15,1.04-.2,2.72,1.06,3.17a7.041,7.041,0,0,0,2.29-.01,26.972,26.972,0,0,0,3.11-.14,47.96,47.96,0,0,0,16.28-4.97c2.74-1.4,2.98-1.45,3.39-4.65A24.255,24.255,0,0,0,127.2,95.6Z" fill="#6b0035"/>
        </g>
        <path id="Trazado_3" data-name="Trazado 3" d="M15.38,91.06c1.09-.43,2.57.16,3.61.47,6.3,1.86,11.73,3.65,18.5,4.14a57.805,57.805,0,0,0,21.68-2.45,48.851,48.851,0,0,0,11-5.57c2.17-1.39,5.25-3.22,5.78-6.07.42-2.22-2.69-3.79-4.26-4.78a32.66,32.66,0,0,0-6.56-3.07,65.77,65.77,0,0,0-14.27-2.92c-1.19-.14-2.38-.26-3.57-.37a2.068,2.068,0,0,1-1.38-3.47c2.8-3.77,7.65-8.2,12.49-8.11,9.32.17,18.46,2.75,25.78,8.98a7.137,7.137,0,0,0,3.01,1.78c1.05.26,1.51-.34,2.24-1.1.35-.37.7-.8,1.1-1.15a2.416,2.416,0,0,1,1.32-.64c.98-.09,1.53.55,2.25,1.08,2.45,1.81-.66,4.43-1.96,5.86C86.93,79.41,82.07,85.42,76.1,90.38c-7.48,6.2-16.49,8.53-25.91,9.85a60.66,60.66,0,0,1-28.28-2.94c-2.33-.83-6.47-1.64-7.49-3.92A1.8,1.8,0,0,1,15.38,91.06Z" fill="#9e0451"/>
      </g>
      <path id="Trazado_4" data-name="Trazado 4" d="M93.87,51.39c.22-.62,2.06-.89,4.14-1.09,2.32-.23,7.29-.45,10.73.52a7.616,7.616,0,0,1,4.95,3.71,3.984,3.984,0,0,1-1.53,5c-3.79,2.72-12.25,2.7-14.94,2.66-.98-.02-2.24-.44-2.41-1.52a25.185,25.185,0,0,1-.35-4.71C94.43,53.71,93.72,51.82,93.87,51.39Z" fill="#6b0035"/>
    </g>
  </g>
</svg>
