<svg id="Layer_2_1_" xmlns="http://www.w3.org/2000/svg" width="35" height="34.125" viewBox="0 0 35 34.125">
  <g id="Surfaces">
    <g id="UI_UX_Surface">
      <g id="Outline_no_shadow">
        <path id="Trazado_20" data-name="Trazado 20" d="M6.2,0H28.8A6.193,6.193,0,0,1,35,6.2V27.927a6.193,6.193,0,0,1-6.2,6.2H6.2a6.193,6.193,0,0,1-6.2-6.2V6.2A6.193,6.193,0,0,1,6.2,0Z" fill="#dbdbdb"/>
      </g>
    </g>
  </g>
  <g id="Outlined_Mnemonics_Logos" transform="translate(5.098 7.479)">
    <g id="Xd">
      <path id="Trazado_21" data-name="Trazado 21" d="M48.266,60.219l-4.375,7.219,4.667,7.656a.251.251,0,0,1,.029.175c-.015.058-.073.015-.16.029h-3.34c-.233,0-.394-.015-.5-.16-.306-.612-.627-1.21-.933-1.823s-.642-1.21-.992-1.838-.7-1.254-1.05-1.9h-.029c-.306.627-.642,1.254-.977,1.881s-.671,1.254-.992,1.867-.671,1.24-1.006,1.838c-.058.146-.175.16-.335.16H35.069c-.058,0-.1.029-.1-.044a.2.2,0,0,1,.029-.16l4.535-7.438L35.112,60.2c-.044-.058-.058-.117-.029-.146A.169.169,0,0,1,35.229,60h3.31a.861.861,0,0,1,.2.029.414.414,0,0,1,.146.131c.277.627.6,1.254.933,1.881s.685,1.24,1.05,1.852.671,1.225.977,1.852h.029c.306-.642.627-1.269.948-1.881s.656-1.225.992-1.838.656-1.24.977-1.837a.248.248,0,0,1,.088-.146.278.278,0,0,1,.19-.029H48.15a.134.134,0,0,1,.16.1c.015.015-.015.073-.044.1Z" transform="translate(-34.961 -58.729)" fill="#f5f5f5"/>
      <path id="Trazado_22" data-name="Trazado 22" d="M136.436,68.16A7.25,7.25,0,0,1,133.3,67.5a5.084,5.084,0,0,1-2.2-1.983,6.31,6.31,0,0,1-.8-3.325,5.989,5.989,0,0,1,.8-3.077,6.056,6.056,0,0,1,2.319-2.26,7.46,7.46,0,0,1,3.69-.846,2.6,2.6,0,0,1,.306.015c.131.015.277.015.452.029V51.447c0-.1.044-.16.146-.16h2.96a.131.131,0,0,1,.146.1V65.3c0,.262.015.554.029.875s.044.6.058.846a.237.237,0,0,1-.146.233,11.137,11.137,0,0,1-2.377.7A12.863,12.863,0,0,1,136.436,68.16Zm1.429-2.917V58.826a3.729,3.729,0,0,0-.394-.073c-.16-.015-.321-.029-.481-.029a3.6,3.6,0,0,0-1.648.379,3.269,3.269,0,0,0-1.24,1.079,3.233,3.233,0,0,0-.481,1.852,4.064,4.064,0,0,0,.248,1.5,2.85,2.85,0,0,0,.656,1.035,2.519,2.519,0,0,0,.992.583,3.817,3.817,0,0,0,1.21.19c.219,0,.423-.015.613-.029A1.275,1.275,0,0,0,137.866,65.243Z" transform="translate(-116.393 -51.284)" fill="#f5f5f5"/>
    </g>
  </g>
</svg>
