<svg xmlns="http://www.w3.org/2000/svg" xmlns:xlink="http://www.w3.org/1999/xlink" width="43.291" height="35" viewBox="0 0 43.291 35">
  <defs>
    <linearGradient id="linear-gradient" x1="-8.133" y1="37.388" x2="-6.64" y2="37.388" gradientUnits="objectBoundingBox">
      <stop offset="0" stop-color="#939fab"/>
      <stop offset="1" stop-color="#dcdee1"/>
    </linearGradient>
  </defs>
  <g id="microsoft-sql-server" transform="translate(0 0.001)">
    <g id="Grupo_6" data-name="Grupo 6" transform="translate(15.579 -0.001)">
      <path id="Trazado_30" data-name="Trazado 30" d="M346.283,463.277l-4.781,1.561-4.159,1.836-1.164.307c-.3.282-.607.567-.943.856-.369.318-.712.607-.976.817a7.278,7.278,0,0,0-.947.939,4.259,4.259,0,0,0-.7,1.185,1.99,1.99,0,0,0,.282,1.789,6.336,6.336,0,0,0,2.613,1.962,16.606,16.606,0,0,0,2.3.77,30.434,30.434,0,0,0,4.9.7,5.6,5.6,0,0,0,.632,0,8.61,8.61,0,0,0,.466-.885,22.382,22.382,0,0,0,1.695-4.485,21.247,21.247,0,0,0,.434-3.108c.025-.351.036-1.525.014-1.923a13.5,13.5,0,0,0-.181-1.695.392.392,0,0,1-.011-.148,6.265,6.265,0,0,1,.647-.2l-.119-.282h0Zm-1.091.64a11.708,11.708,0,0,1,.188,1.81.969.969,0,0,1,0,.246c-.029,0-.611-.343-1.026-.6-.361-.228-1.048-.683-1.156-.77-.036-.025-.033-.029.264-.13C343.96,464.3,345.152,463.917,345.192,463.917Zm-2.436.8a1.2,1.2,0,0,1,.314.17,22.4,22.4,0,0,0,2.19,1.218c.134.058.148.036-.159.246a15.75,15.75,0,0,1-2.483,1.333c-.177.079-.325.141-.329.141a.936.936,0,0,1,.043-.2,10.656,10.656,0,0,0,.387-2.54c0-.361,0-.361.036-.372C342.749,464.719,342.753,464.719,342.756,464.719Zm-.5.191a7.788,7.788,0,0,1-.022,1.052,9.191,9.191,0,0,1-.332,1.572,2.413,2.413,0,0,1-.083.253,6.357,6.357,0,0,1-.672-.654,4.889,4.889,0,0,1-.665-.968,3.048,3.048,0,0,1-.2-.491C340.335,465.633,342.24,464.9,342.254,464.91Zm-2.363.929a.013.013,0,0,1,.011,0,.673.673,0,0,1,.054.13,4.885,4.885,0,0,0,.6,1.073,6.11,6.11,0,0,0,.835.9c.087.072.166.141.177.152s.029.018-.56.242c-.683.26-1.427.52-2.28.795l-.611.2c-.033.011-.022-.007.072-.155a20.321,20.321,0,0,0,1.427-2.876c.061-.159.123-.318.134-.354a.13.13,0,0,1,.079-.094A.348.348,0,0,1,339.891,465.839Zm-.723.3a8.1,8.1,0,0,1-.354.748c-.351.683-.734,1.355-1.247,2.172-.087.141-.17.271-.181.285s-.025.018-.083-.094a3.313,3.313,0,0,1-.278-.838,3.376,3.376,0,0,1,.018-1.077c.047-.224.043-.22.152-.275C337.658,466.826,339.154,466.125,339.168,466.139Zm6.233.253v.152a19.651,19.651,0,0,1-.213,2.718c-.022.141-.04.256-.043.26s-.1-.029-.228-.065a9.329,9.329,0,0,1-1.662-.712,7.357,7.357,0,0,1-.846-.52s.155-.083.332-.177a21.3,21.3,0,0,0,1.977-1.16c.22-.148.553-.387.625-.452Zm-8.962,1.07c.014,0,.011.029-.011.159-.014.094-.033.267-.04.387a2.674,2.674,0,0,0,.318,1.453,3,3,0,0,1,.126.275c-.025.022-2.418.723-3.169.929l-.434.119c-.025.007-.029,0-.018-.058a3.8,3.8,0,0,1,1.052-1.81,4.673,4.673,0,0,1,1.189-.911c.369-.21.936-.524.979-.538C336.432,467.462,336.436,467.462,336.44,467.462Zm5.637,1.008a1.453,1.453,0,0,1,.2.1,10.885,10.885,0,0,0,2.768,1.077l.083.018-.116.065c-.481.267-2.06.925-3.675,1.529-.235.087-.466.173-.51.192a.262.262,0,0,1-.083.025s.065-.13.148-.286a17.835,17.835,0,0,0,1.138-2.591c.029-.069.047-.13.051-.134Zm-.575.188a1.035,1.035,0,0,1-.061.166,22.886,22.886,0,0,1-1.254,2.526c-.134.239-.246.43-.249.43s-.112-.065-.242-.145a7.431,7.431,0,0,1-1.89-1.608l-.065-.079.329-.09a23.6,23.6,0,0,0,3.173-1.095C341.383,468.7,341.5,468.658,341.5,468.658Zm3.57,1.247h0c0,.083-.181.828-.332,1.366-.126.452-.235.806-.434,1.431-.087.275-.163.5-.166.5a.241.241,0,0,1-.047-.011,15.1,15.1,0,0,1-2.938-.828c-.253-.1-.614-.264-.636-.282a4.222,4.222,0,0,1,.484-.228c1.644-.719,3.35-1.536,3.935-1.886A.471.471,0,0,1,345.073,469.9Zm-8.243.282c.007.007-.452.669-1.095,1.568-.224.314-.484.683-.582.82s-.246.354-.329.484l-.152.235-.163-.137a6.024,6.024,0,0,1-.672-.687,2.966,2.966,0,0,1-.6-1.167c-.04-.173-.04-.26,0-.271.054-.014,1.019-.242,1.922-.452.5-.116,1.084-.253,1.294-.3S336.826,470.186,336.83,470.186Zm.463.177.116.13a6.787,6.787,0,0,0,1.695,1.388.949.949,0,0,1,.2.127c-.025.018-2.233.8-3.256,1.156-.575.2-1.048.365-1.052.365a.621.621,0,0,1-.072-.047l-.065-.047.1-.152c.34-.491.766-1.03,1.695-2.15Zm2.884,2.063s.163.054.358.126a11.549,11.549,0,0,0,1.341.416,14.851,14.851,0,0,0,2.027.351c.079.007.123.014.108.025s-.557.192-.947.314c-.622.2-2.519.755-4.065,1.2-.285.083-.531.152-.546.155a.286.286,0,0,1-.155-.04,2.614,2.614,0,0,1,.192-.242,21.444,21.444,0,0,0,1.467-1.973C340.075,472.578,340.176,472.43,340.176,472.427Zm-.636.018s-.253.415-.7,1.124c-.192.3-.4.64-.481.759s-.181.3-.242.4l-.1.184-.054-.014c-.13-.036-1.044-.358-1.286-.455a8.939,8.939,0,0,1-.842-.387,3.521,3.521,0,0,1-.622-.394c.007,0,.5-.137,1.1-.3,1.583-.43,2.461-.679,3.035-.86A1.453,1.453,0,0,1,339.54,472.445Zm4.5,1.055h0c.014.036-.571,1.662-.784,2.175-.047.116-.065.145-.09.141-.061,0-.911-.123-1.427-.2-.9-.137-2.41-.4-2.79-.488l-.087-.018.538-.123c1.156-.26,1.713-.4,2.277-.575a16.1,16.1,0,0,0,2.128-.82A1.744,1.744,0,0,1,344.039,473.5Z" transform="translate(-332.512 -452.132)" fill="#dbdbdb"/>
      <path id="Trazado_31" data-name="Trazado 31" d="M461.466,82.734a22.969,22.969,0,0,0-2.19.788,13.674,13.674,0,0,0-2.519,1.265,1.909,1.909,0,0,0-.488.488.338.338,0,0,0-.022.123l.484.459,1.153.369,2.743.491,3.137.538.033-.271c-.011,0-.018,0-.029,0l-.412-.065-.083-.148c-.426-.752-.9-1.684-1.171-2.313A11.957,11.957,0,0,1,461.574,83c-.061-.246-.069-.26-.108-.264h0Zm-.058.184h0s.018.1.033.224a7.551,7.551,0,0,0,.351,1.521c.134.4.134.376-.022.329-.369-.1-2.02-.387-3.216-.553-.192-.025-.354-.051-.354-.054s.864-.473,1.25-.654C459.948,83.5,461.307,82.937,461.408,82.919Zm-3.484,1.619.141.047a21.538,21.538,0,0,0,3.755.716l.224.022a1.674,1.674,0,0,1-.228.119c-.513.257-1.077.571-1.467.813a1.5,1.5,0,0,1-.235.13c-.014,0-.09-.014-.17-.025l-.145-.022-.361-.354c-.636-.618-1.135-1.095-1.326-1.276Zm-.144.112.51.636c.278.351.56.694.622.77a1.186,1.186,0,0,1,.108.141c-.014.011-.737-.13-1.12-.217s-.556-.134-.8-.21l-.2-.065v-.051c0-.242.311-.6.831-.972Zm4.329.867c.014,0,.032.033.076.13.123.271.506,1,.6,1.142.029.047.079.051-.43-.032-1.225-.2-1.619-.264-1.619-.271a.375.375,0,0,1,.083-.054,7.054,7.054,0,0,0,1.1-.762c.083-.069.159-.134.173-.145S462.105,85.513,462.109,85.517Z" transform="translate(-452.624 -82.734)" fill="url(#linear-gradient)"/>
      <path id="Trazado_32" data-name="Trazado 32" d="M394.729,167.757a.36.36,0,0,0,0,.314,1.428,1.428,0,0,0,.34.4s1.608,1.568,1.8,1.792a5.024,5.024,0,0,1,1.312,3.433,5.558,5.558,0,0,1-.571,2.6,16.876,16.876,0,0,1-4.784,5.46l.358-.119a11.494,11.494,0,0,1,1.283-.762,45.729,45.729,0,0,1,5.966-2.671,74.406,74.406,0,0,1,12.109-3.245l.329-.051-.051-.079a11.133,11.133,0,0,0-.726-1.023,8.682,8.682,0,0,0-2.566-2.136,19.027,19.027,0,0,0-5.569-1.868c-.437-.087-1.4-.253-2.179-.372-1.655-.257-2.725-.434-3.9-.636-.423-.072-1.055-.181-1.474-.271a9.363,9.363,0,0,1-.958-.257C395.184,168.165,394.808,168.064,394.729,167.757Zm.932.9a1,1,0,0,1,.137.043c.137.047.314.1.524.159q.238.065.477.126c.217.054.4.1.4.1.025.025.39,1.192.513,1.641.047.17.083.314.08.314a.728.728,0,0,1-.09-.141,7.522,7.522,0,0,0-1.865-2.107A1.538,1.538,0,0,1,395.661,168.661Zm1.778.491a1.422,1.422,0,0,1,.2.033c.614.137,1.716.347,2.421.466a.883.883,0,0,1,.213.047.365.365,0,0,1-.1.061c-.119.061-.6.347-.759.455a6.927,6.927,0,0,0-1.023.817c-.1.1-.2.192-.2.192s-.022-.061-.04-.137a11.707,11.707,0,0,0-.647-1.771,1.552,1.552,0,0,1-.072-.166C397.435,169.156,397.435,169.152,397.439,169.152Zm3.129.6a1.39,1.39,0,0,1,.13.4,5.914,5.914,0,0,1,.173,1.655c-.007.152-.014.293-.022.311l-.011.036-.188-.061c-.387-.123-1.015-.307-1.554-.459-.307-.083-.556-.159-.556-.166a8.549,8.549,0,0,1,.64-.64A16.773,16.773,0,0,1,400.568,169.748Zm.249.036c.011-.011,1.5.246,2.172.376.5.1,1.232.249,1.276.267.022.007-.054.051-.3.159a15.682,15.682,0,0,0-2.367,1.286c-.184.123-.34.224-.343.224a1.985,1.985,0,0,1-.007-.231,5.048,5.048,0,0,0-.39-1.966A.549.549,0,0,1,400.818,169.784Zm3.841.759a2.718,2.718,0,0,1-.079.477,9.058,9.058,0,0,1-.911,2.089,2.382,2.382,0,0,1-.152.246,1.547,1.547,0,0,1-.217-.116,11.762,11.762,0,0,0-1.417-.694c-.144-.061-.271-.112-.275-.119-.025-.022,1.138-.791,1.753-1.16C403.85,170.97,404.645,170.529,404.659,170.543Zm.275.043c.033,0,.69.181,1.033.282a21.324,21.324,0,0,1,2.461.9l.264.119-.184.043a26.934,26.934,0,0,0-4.167,1.29c-.1.043-.2.079-.206.079a.929.929,0,0,1,.076-.184,7.319,7.319,0,0,0,.7-2.407C404.912,170.641,404.923,170.587,404.934,170.587Zm-6.548,1.5c.011-.011.513.108.784.184.412.116,1.286.408,1.286.43,0,0-.1.087-.213.188-.473.394-.929.809-1.474,1.337-.163.155-.3.282-.307.282s-.011-.022-.007-.051a8.148,8.148,0,0,0-.051-2.179C398.393,172.18,398.382,172.093,398.386,172.09Zm10.555.011a6.945,6.945,0,0,1-.383.6c-.217.311-.535.723-1.254,1.626-.379.477-.806,1.015-.947,1.2s-.264.332-.267.332a1.249,1.249,0,0,1-.1-.144,7.467,7.467,0,0,0-1.464-1.615c-.108-.09-.228-.188-.267-.217a.4.4,0,0,1-.072-.061c0-.011.614-.275,1.081-.463.817-.332,1.93-.73,2.764-.987C408.468,172.227,408.934,172.093,408.941,172.1Zm.278.072a.832.832,0,0,1,.206.1,12.256,12.256,0,0,1,2.418,1.814c.191.188.665.679.658.683s-.166.014-.361.029a35.622,35.622,0,0,0-5.341.889c-.126.029-.238.054-.246.054s.134-.141.311-.311a9.246,9.246,0,0,0,2.193-2.92c.083-.177.155-.329.163-.34Zm-8.047.824c.051.011.52.231.875.408.325.163.813.423.838.444,0,0-.17.094-.383.2-.679.34-1.261.661-1.868,1.03-.173.1-.318.192-.322.192s-.011-.015.087-.192a7.544,7.544,0,0,0,.734-1.991c.014-.054.029-.09.04-.09Zm-.47.087a6.9,6.9,0,0,1-.188.7,8.9,8.9,0,0,1-.64,1.467c-.058.1-.145.249-.192.332l-.09.145-.2-.2a2.654,2.654,0,0,0-.672-.5.972.972,0,0,1-.174-.1c0-.029.618-.589,1.091-.994C399.976,173.647,400.691,173.073,400.7,173.084Zm2.873,1.182.177.116A13.743,13.743,0,0,1,405,175.3c.206.17.6.528.683.614l.043.047-.293.083c-1.655.459-2.934.867-4.427,1.417-.166.061-.307.112-.318.112s-.04.018.332-.325a15.863,15.863,0,0,0,2.428-2.79Zm-.755.188c.007.007-.488.7-.784,1.1-.354.47-.983,1.258-1.417,1.771-.181.213-.336.39-.343.394s-.014-.051-.014-.134a3.029,3.029,0,0,0-.307-1.3c-.083-.166-.1-.206-.079-.224.069-.061,1.12-.661,1.785-1.019.448-.238,1.149-.593,1.16-.585Zm-4.568,1.12a1.587,1.587,0,0,1,.188.094,3.968,3.968,0,0,1,.622.419,1.079,1.079,0,0,1-.21.173c-.343.246-.864.64-1.167.882s-.329.26-.293.206a6.659,6.659,0,0,0,.484-.835,6.727,6.727,0,0,0,.3-.755A.614.614,0,0,1,398.252,175.573Zm1.218.954c.018,0,.04.029.137.174a2.607,2.607,0,0,1,.4,1.052l.007.072-.495.192c-.885.343-1.7.683-2.255.936-.155.072-.426.2-.6.289s-.322.159-.322.155.112-.087.249-.188a14.571,14.571,0,0,0,2.717-2.5c.076-.09.145-.174.152-.177Zm-.56.137a7.649,7.649,0,0,1-.679.766,11.985,11.985,0,0,1-2.244,1.81l-.217.137c-.025.014.007-.022.383-.43.239-.257.419-.473.625-.741a1.221,1.221,0,0,1,.361-.343C397.67,177.481,398.9,176.65,398.91,176.665Z" transform="translate(-391.058 -165.267)" fill="#b2b2b2"/>
    </g>
    <path id="Trazado_33" data-name="Trazado 33" d="M7.783,792.559c-.067,0-.133.006-.2.006A2.979,2.979,0,0,0,4.8,794.387a4.8,4.8,0,0,0,.005,3.467,3.008,3.008,0,0,0,2.531,1.777c.272.045.454.194.981.809l.648.759h1.175l-.781-.788a8.336,8.336,0,0,1-.781-.841c0-.033.165-.105.365-.166a2.685,2.685,0,0,0,1.59-1.489,3.128,3.128,0,0,0,.4-1.6c.116-2.321-1.108-3.772-3.146-3.756Zm1.03,6.07a2.764,2.764,0,0,1-1.943.133,2.506,2.506,0,0,1-1.346-1.446,4.106,4.106,0,0,1,.077-2.647,2.234,2.234,0,0,1,2.121-1.391c1.429,0,2.242.875,2.348,2.52a2.736,2.736,0,0,1-1.256,2.83Zm20.3-4.087a1.259,1.259,0,0,0-1.124.593l-.2.311v-.809h-.853v4.852h.852v-1.551c0-1.418.018-1.584.216-1.972a1.064,1.064,0,0,1,1.2-.671l.3.089v-.841h-.394ZM24.1,794.5a2.758,2.758,0,0,0-1.629,4.481,2.639,2.639,0,0,0,2.907.415c.194-.083.4-.178.4-.178v-.763l-.4.21a1.919,1.919,0,0,1-2.166-.071,2.186,2.186,0,0,1-.581-1.285h3.439v-.654A1.93,1.93,0,0,0,24.1,794.5Zm-1.391,2.128a1.988,1.988,0,0,1,.6-1.158,1.285,1.285,0,0,1,.742-.238,1.186,1.186,0,0,1,.72.243,1.892,1.892,0,0,1,.5,1.146H22.707v.006Zm-20.562-.875c-.925-.56-1.335-.964-1.285-1.44.144-1.318,1.772-1.136,2.674-.637l.006-.887a3.479,3.479,0,0,0-1.213-.227,2.057,2.057,0,0,0-2.137,1.075c-.488,1.08-.056,1.894,1.505,2.8.876.51,1.264.953,1.264,1.435,0,1-1.2,1.345-2.442.72-.255-.127-.471-.233-.483-.233a7.658,7.658,0,0,0-.022.959,5.306,5.306,0,0,0,.953.271c1.417.283,2.707-.382,2.829-1.462.106-1.014-.26-1.545-1.649-2.375h0Zm34.512-1.264a2.586,2.586,0,0,0-.527.062,2.842,2.842,0,0,0-1.1,4.414,2.644,2.644,0,0,0,2.913.415c.193-.082.4-.176.4-.176v-.765l-.4.211a1.92,1.92,0,0,1-2.166-.072,2.158,2.158,0,0,1-.582-1.285h3.433v-.654a1.927,1.927,0,0,0-1.971-2.148h0Zm-1.391,2.128a2.02,2.02,0,0,1,.6-1.163,1.279,1.279,0,0,1,.741-.238,1.187,1.187,0,0,1,.72.244,1.9,1.9,0,0,1,.5,1.152H35.267v.006Zm-15.633-.853c-.925-.559-1.334-.964-1.284-1.44.144-1.318,1.772-1.135,2.674-.637l.006-.887a3.461,3.461,0,0,0-1.213-.226,2.058,2.058,0,0,0-2.138,1.075c-.487,1.08-.05,1.894,1.506,2.8.875.509,1.263.946,1.263,1.429,0,1-1.2,1.351-2.442.719-.254-.127-.47-.232-.483-.232a7.658,7.658,0,0,0-.022.959,5.8,5.8,0,0,0,.946.271c1.419.283,2.709-.381,2.831-1.461.105-1.008-.26-1.54-1.645-2.371h0Zm22.035-1.23a1.254,1.254,0,0,0-1.124.593l-.2.31v-.808h-.853v4.851h.852v-1.551c0-1.418.017-1.584.216-1.971a1.064,1.064,0,0,1,1.2-.67l.3.089v-.843h-.394Zm-28.818,1.2v-3.09h-.86v6.845h3.616v-.808H12.851v-2.946Zm19.886.963-.709,1.844-.681-1.854-.692-2.055h-.88c.57,1.617,1.191,3.262,1.816,4.857.271.006.543,0,.814,0l.957-2.4.975-2.453h-.841s-.372.974-.759,2.065h0Zm-17.9-5.919a.471.471,0,0,0,.349-.14.463.463,0,0,0,.144-.343.455.455,0,0,0-.144-.343.478.478,0,0,0-.343-.133.471.471,0,0,0-.349.138.462.462,0,0,0-.138.343.447.447,0,0,0,.138.343.467.467,0,0,0,.343.133h0Zm-.3-.788a.435.435,0,0,1,.743.3.427.427,0,0,1-.127.31.415.415,0,0,1-.3.122.4.4,0,0,1-.3-.122.426.426,0,0,1-.127-.31A.41.41,0,0,1,14.527,789.989Zm.205.349h.056c.039,0,.078.038.111.11l.067.15h.1l-.083-.166c-.034-.067-.067-.105-.105-.116a.2.2,0,0,0,.116-.061.153.153,0,0,0,.038-.111.142.142,0,0,0-.049-.117.278.278,0,0,0-.178-.049h-.176v.621h.089v-.26Zm0-.288h.078a.2.2,0,0,1,.117.028c.021.016.027.038.027.078,0,.072-.045.105-.127.105h-.1v-.211h0Zm-14.2.233c0-.216-.006-.377-.011-.471H.522a1.414,1.414,0,0,0,.072.25l.826,1.844h.138l.826-1.861a1.679,1.679,0,0,0,.072-.233h.006c-.016.184-.022.344-.022.472v1.628h.283v-2.42H2.367l-.759,1.683q-.042.1-.116.3H1.481a1.941,1.941,0,0,0-.11-.287l-.742-1.7H.252v2.42H.524v-1.622h0Zm2.813,0h.244v1.507H3.341Zm.122-.553a.172.172,0,0,0,.127-.051.176.176,0,0,0,.056-.127.16.16,0,0,0-.055-.127.178.178,0,0,0-.128-.051.174.174,0,0,0-.127.051.179.179,0,0,0-.056.127.153.153,0,0,0,.056.127.183.183,0,0,0,.127.051h0Zm1.861,2.093v-.266a.7.7,0,0,1-.426.149.551.551,0,0,1-.427-.178.688.688,0,0,1-.161-.476.715.715,0,0,1,.171-.5.558.558,0,0,1,.432-.183.709.709,0,0,1,.41.133v-.283a.845.845,0,0,0-.4-.089.854.854,0,0,0-.654.26.974.974,0,0,0-.243.686.88.88,0,0,0,.221.621.786.786,0,0,0,.6.249A.976.976,0,0,0,5.324,791.828Zm.7-.8a.781.781,0,0,1,.127-.47.347.347,0,0,1,.283-.15.325.325,0,0,1,.21.056v-.288a.439.439,0,0,0-.165-.022.422.422,0,0,0-.267.1.583.583,0,0,0-.187.292H6.015v-.354H5.739v1.727h.277v-.887Zm1.59.921a.817.817,0,0,0,.626-.25,1.089,1.089,0,0,0,.017-1.324.763.763,0,0,0-.6-.238.867.867,0,0,0-.626.227.942.942,0,0,0-.254.7.9.9,0,0,0,.221.637.8.8,0,0,0,.62.25h0Zm-.394-1.407a.546.546,0,0,1,.415-.166.516.516,0,0,1,.41.166.926.926,0,0,1,.011.991.5.5,0,0,1-.415.178.54.54,0,0,1-.421-.178.7.7,0,0,1-.155-.488A.678.678,0,0,1,7.218,790.538Zm2.464,1.257a.454.454,0,0,0,.161-.354.433.433,0,0,0-.127-.316.98.98,0,0,0-.322-.188,1,1,0,0,1-.26-.144.237.237,0,0,1-.072-.178.209.209,0,0,1,.083-.172.342.342,0,0,1,.222-.066.652.652,0,0,1,.394.123v-.277a.812.812,0,0,0-.372-.082.659.659,0,0,0-.438.143.474.474,0,0,0-.061.669.893.893,0,0,0,.31.194,1.165,1.165,0,0,1,.283.161.211.211,0,0,1,.072.165c0,.161-.11.245-.326.245a.685.685,0,0,1-.449-.165v.3a.817.817,0,0,0,.426.105.752.752,0,0,0,.476-.161ZM11,790.133a.867.867,0,0,0-.626.227.947.947,0,0,0-.254.7.9.9,0,0,0,.221.637.9.9,0,0,0,1.246,0,.93.93,0,0,0,.233-.664.947.947,0,0,0-.216-.659.781.781,0,0,0-.6-.238h0Zm.537.908a.743.743,0,0,1-.138.488.505.505,0,0,1-.415.178.54.54,0,0,1-.421-.178.7.7,0,0,1-.155-.488.71.71,0,0,1,.166-.509.546.546,0,0,1,.415-.166.525.525,0,0,1,.409.166.842.842,0,0,1,.138.509h0Zm.748.864h.276v-1.5h.4v-.232h-.4v-.267c0-.242.094-.365.288-.365a.382.382,0,0,1,.182.044v-.25a.506.506,0,0,0-.2-.027.516.516,0,0,0-.371.138.583.583,0,0,0-.178.448v.283h-.292v.232h.292v1.49Zm1.135-.471c0,.338.149.51.454.51a.5.5,0,0,0,.26-.057v-.237a.29.29,0,0,1-.178.056.236.236,0,0,1-.2-.072.406.406,0,0,1-.062-.249v-.975h.438v-.232H13.7v-.509c-.1.033-.189.061-.277.089v.42h-.3v.232h.3v1.024Zm29.722,3.184a.475.475,0,0,0-.343-.133.475.475,0,0,0-.488.483.453.453,0,0,0,.138.343.487.487,0,0,0,.349.133.476.476,0,0,0,.349-.138.468.468,0,0,0,.143-.343.48.48,0,0,0-.149-.344Zm-.044.654a.445.445,0,0,1-.61,0,.431.431,0,0,1-.127-.311.415.415,0,0,1,.432-.425.414.414,0,0,1,.3.121.419.419,0,0,1,.127.3A.4.4,0,0,1,43.1,795.273Zm-.249-.283a.238.238,0,0,0,.116-.061.153.153,0,0,0,.038-.112.141.141,0,0,0-.05-.116.278.278,0,0,0-.178-.049H42.6v.62h.089v-.26h.055c.038,0,.076.038.11.111l.066.149h.105l-.083-.166c-.029-.072-.062-.105-.1-.116Zm-.061-.056h-.1v-.21h.078a.194.194,0,0,1,.116.027c.022.017.027.038.027.078,0,.072-.044.1-.127.1Zm-15.451-4.829h.077v-.621h.205v-.077h-.488v.077h.205v.621Zm.47-.466a1.118,1.118,0,0,0,0-.138.384.384,0,0,0,.022.072l.238.532H28.1l.239-.537c.006-.016.012-.038.022-.067-.005.055-.005.1-.005.133v.47h.083v-.7h-.1l-.216.481c-.005.017-.022.051-.033.089h-.006a.508.508,0,0,0-.032-.082l-.216-.488h-.112v.7H27.8v-.466h0Z" transform="translate(0 -766.199)" fill="#b2b2b2"/>
  </g>
</svg>
