<svg xmlns="http://www.w3.org/2000/svg" width="35.885" height="35" viewBox="0 0 35.885 35">
  <path id="Octicons-mark-github" d="M17.943,0a17.943,17.943,0,0,0-5.674,34.966c.9.157,1.234-.381,1.234-.852,0-.426-.022-1.839-.022-3.342-4.508.83-5.674-1.1-6.033-2.108a6.524,6.524,0,0,0-1.839-2.534c-.628-.336-1.525-1.166-.022-1.189a3.591,3.591,0,0,1,2.759,1.839,3.835,3.835,0,0,0,5.226,1.48,3.774,3.774,0,0,1,1.144-2.4c-3.992-.449-8.164-2-8.164-8.859a6.983,6.983,0,0,1,1.839-4.822,6.447,6.447,0,0,1,.179-4.755s1.5-.471,4.934,1.839a16.916,16.916,0,0,1,8.971,0C25.9,6.93,27.407,7.424,27.407,7.424a6.447,6.447,0,0,1,.179,4.755A6.942,6.942,0,0,1,29.426,17c0,6.885-4.194,8.411-8.186,8.859a4.249,4.249,0,0,1,1.211,3.319c0,2.4-.022,4.329-.022,4.934,0,.471.336,1.032,1.234.852A17.952,17.952,0,0,0,17.943,0Z" fill="#dbdbdb" fill-rule="evenodd"/>
</svg>
